<?xml version="1.0" encoding="utf-8"?>
<!-- Generator: Adobe Illustrator 16.0.0, SVG Export Plug-In . SVG Version: 6.00 Build 0)  -->
<!DOCTYPE svg PUBLIC "-//W3C//DTD SVG 1.1//EN" "http://www.w3.org/Graphics/SVG/1.1/DTD/svg11.dtd">
<svg version="1.1" id="Layer_1" xmlns="http://www.w3.org/2000/svg" xmlns:xlink="http://www.w3.org/1999/xlink" x="0px" y="0px"
	 width="248px" height="227.5px" viewBox="0 0 248 227.5" style="enable-background:new 0 0 248 227.5;" xml:space="preserve">
<style type="text/css">
<![CDATA[
	.st0{fill:#FFFFFF;}
	.st1{fill:none;}
	.st2{display:none;fill:#231F20;}
]]>
</style>
<rect x="-366.5" y="-255.7" class="st2" width="771" height="558"/>
<rect id="_x3C_Slice_x3E_" x="185.5" y="170.3" class="st1" width="65" height="58"/>
<g>
	<path class="st1" d="M40.5,166.3c-14,0-25.4,11.6-25.4,25.8s11.4,25.8,25.4,25.8c14,0,25.4-11.6,25.4-25.8S54.5,166.3,40.5,166.3z"
		/>
	<path class="st1" d="M33.4,33.5c-14.3,0-25.9,11.8-25.9,26.3C7.6,74.2,19.2,86,33.4,86c14.3,0,25.9-11.8,25.9-26.3
		C59.3,45.2,47.7,33.5,33.4,33.5z"/>
	<path class="st1" d="M211.2,64.2c15.7,0,28.4-12.4,28.4-27.6c0-15.2-12.8-27.6-28.4-27.6s-28.4,12.4-28.4,27.6
		C182.7,51.9,195.5,64.2,211.2,64.2z"/>
	<path class="st1" d="M128,82.4c-16.8,0-30.5,13.8-30.5,30.7c0,16.9,13.7,30.7,30.5,30.7s30.5-13.8,30.5-30.7
		C158.5,96.1,144.8,82.4,128,82.4z"/>
	<path class="st1" d="M210.3,158.9c-12.9,0-23.3,10.2-23.3,22.7c0,12.5,10.5,22.7,23.3,22.7c12.9,0,23.3-10.2,23.3-22.7
		C233.6,169.1,223.2,158.9,210.3,158.9z"/>
	<path class="st0" d="M210.3,151.4c-8.7,0-16.9,3.6-22.7,9.8l-29.7-24.6c5.3-6.7,8.1-15,8.1-23.6c0-6.1-1.5-12.1-4.3-17.6l28-30.6
		c6.2,4.5,13.7,6.9,21.4,6.9c19.8,0,36-15.8,36-35.1c0-19.4-16.1-35.1-36-35.1c-19.8,0-36,15.8-36,35.1c0,8.6,3.2,16.8,9,23.2
		L157.5,89c-7.2-8.9-18-14.2-29.5-14.2c-13.6,0-26,7.2-32.8,19L62.1,77.1c3.1-5.3,4.8-11.2,4.8-17.4c0-18.7-15-33.8-33.5-33.8
		C15,25.9,0,41.1,0,59.7c0,18.7,15,33.8,33.4,33.8c9,0,17.7-3.7,24-10.3l34.6,17.5c-1.4,4-2.1,8.1-2.1,12.3
		c0,10.3,4.1,20.1,11.4,27.3l-37.9,28c-6.1-6.1-14.4-9.6-23-9.6c-18.2,0-33,14.9-33,33.3c0,18.4,14.8,33.3,33,33.3
		c18.2,0,33-14.9,33-33.3c0-6.4-1.8-12.5-5.2-17.9l39.3-29c6.1,4,13.2,6.1,20.5,6.1c9.1,0,17.7-3.2,24.6-9.2l30.5,25.2
		c-2.4,4.4-3.7,9.3-3.7,14.3c0,16.7,13.9,30.3,30.9,30.3s30.9-13.6,30.9-30.3C241.2,165,227.3,151.4,210.3,151.4z M40.5,217.8
		c-14,0-25.4-11.6-25.4-25.8s11.4-25.8,25.4-25.8c14,0,25.4,11.6,25.4,25.8S54.5,217.8,40.5,217.8z M33.4,86
		C19.2,86,7.6,74.2,7.6,59.7c0-14.5,11.6-26.3,25.9-26.3c14.3,0,25.9,11.8,25.9,26.3C59.3,74.2,47.7,86,33.4,86z M211.2,9.1
		c15.7,0,28.4,12.4,28.4,27.6c0,15.2-12.8,27.6-28.4,27.6s-28.4-12.4-28.4-27.6C182.7,21.5,195.5,9.1,211.2,9.1z M128,143.8
		c-16.8,0-30.5-13.8-30.5-30.7c0-16.9,13.7-30.7,30.5-30.7s30.5,13.8,30.5,30.7C158.5,130,144.8,143.8,128,143.8z M210.3,204.4
		c-12.9,0-23.3-10.2-23.3-22.7c0-12.5,10.5-22.7,23.3-22.7c12.9,0,23.3,10.2,23.3,22.7C233.6,194.2,223.2,204.4,210.3,204.4z"/>
</g>
</svg>
