<?xml version="1.0" encoding="utf-8"?>
<!-- Generator: Adobe Illustrator 16.0.0, SVG Export Plug-In . SVG Version: 6.00 Build 0)  -->
<!DOCTYPE svg PUBLIC "-//W3C//DTD SVG 1.1//EN" "http://www.w3.org/Graphics/SVG/1.1/DTD/svg11.dtd">
<svg version="1.1" id="Layer_1" xmlns="http://www.w3.org/2000/svg" xmlns:xlink="http://www.w3.org/1999/xlink" x="0px" y="0px"
	 width="248px" height="227.5px" viewBox="0 0 248 227.5" style="enable-background:new 0 0 248 227.5;" xml:space="preserve">
<style type="text/css">
<![CDATA[
	.st0{fill:#231F20;}
	.st1{fill:none;}
	.st2{display:none;fill:#231F20;}
]]>
</style>
<rect x="-366.5" y="-255.7" class="st2" width="771" height="558"/>
<rect id="_x3C_Slice_x3E_" x="185.5" y="170.3" class="st1" width="65" height="58"/>
<g>
	<g id="XMLID_1_">
		<g>
			<path class="st0" d="M210.3,204.4c12.9,0,23.3-10.2,23.3-22.7c0-12.5-10.5-22.7-23.3-22.7c-12.9,0-23.3,10.2-23.3,22.7
				C187,194.2,197.4,204.4,210.3,204.4z M182.7,36.7c0,15.2,12.8,27.6,28.4,27.6c15.7,0,28.5-12.4,28.5-27.6S226.9,9.1,211.2,9.1
				C195.5,9.1,182.7,21.5,182.7,36.7z M97.6,113.1c0,16.9,13.7,30.7,30.5,30.7c16.8,0,30.4-13.8,30.4-30.7
				c0-16.9-13.7-30.7-30.4-30.7C111.2,82.4,97.6,96.1,97.6,113.1z M15.1,192.1c0,14.2,11.4,25.8,25.4,25.8c14,0,25.4-11.6,25.4-25.8
				s-11.4-25.8-25.4-25.8C26.5,166.3,15.1,177.8,15.1,192.1z M7.6,59.7C7.6,74.2,19.2,86,33.4,86s25.9-11.8,25.9-26.3
				S47.7,33.5,33.4,33.5S7.6,45.3,7.6,59.7z M247.2,36.7c0,19.4-16.1,35.1-36,35.1c-7.7,0-15.2-2.4-21.4-6.9l-28,30.6
				c2.8,5.4,4.3,11.5,4.3,17.6c0,8.5-2.9,16.9-8.1,23.6l29.7,24.6c5.9-6.3,14-9.8,22.7-9.8c17,0,30.9,13.6,30.9,30.3
				c0,16.7-13.8,30.3-30.9,30.3c-17,0-30.9-13.6-30.9-30.3c0-5,1.3-9.9,3.7-14.3l-30.5-25.2c-6.9,5.9-15.6,9.2-24.6,9.2
				c-7.3,0-14.4-2.1-20.5-6.1l-39.3,29c3.4,5.4,5.2,11.5,5.2,17.9c0,18.4-14.8,33.3-33,33.3c-18.2,0-32.9-15-32.9-33.3
				s14.8-33.3,32.9-33.3c8.6,0,16.9,3.5,23,9.6l37.9-28c-7.3-7.2-11.4-17-11.4-27.3c0-4.2,0.7-8.3,2-12.3L57.5,83.2
				c-6.3,6.6-15,10.3-24,10.3C15,93.6,0,78.4,0,59.7s15-33.8,33.5-33.8c18.5,0,33.5,15.2,33.5,33.8c0,6.2-1.7,12.1-4.8,17.4
				l33.1,16.7c6.8-11.8,19.2-19,32.8-19c11.4,0,22.2,5.2,29.5,14.2l26.7-29.1c-5.8-6.4-9-14.6-9-23.2c0-19.4,16.2-35.1,36-35.1
				C231,1.5,247.2,17.3,247.2,36.7z"/>
		</g>
		<g>
		</g>
	</g>
</g>
</svg>
